#!OML:ASF F:\VICON\USERDATA\INSTALL\SteveWalk\SteveWalk.ASF
:FULLY-SPECIFIED
:DEGREES

329
root 0.551421 16.2327 25.7322 16.4371 -0.221162 1.81517
lowerback -14.95 -1.10828 -4.41169
upperback -5.20593 -0.798913 -0.78932
thorax 2.90891 -0.378734 1.52708
lowerneck -3.1132 0.0288411 -1.21332
upperneck 9.34855 -0.128027 2.68588
head 3.57737 0.00159607 1.09103
rclavicle 1.2424e-017 2.0276e-014
rhumerus -42.8138 -8.12082 -85.1367
rradius 27.4687
rwrist -11.9075
rhand -22.8771 -30.9512
rfingers 7.12502
rthumb 3.56178 -420.901
lclavicle 1.2424e-017 2.0276e-014
lhumerus -35.2244 16.5474 75.9697
lradius 19.4682
lwrist -14.7359
lhand -17.616 -15.1213
lfingers 7.12502
lthumb 8.6409 14.6818
rfemur -43.1986 -6.42983 20.8617
rtibia 69.4072
rfoot -11.3055 3.04049
rtoes -6.99344
lfemur -27.5535 4.72656 -26.3891
ltibia 36.513
lfoot -23.0033 -3.65175
ltoes -8.08807
330
root 0.543472 16.23 25.9337 16.304 -0.164815 1.64413
lowerback -14.8422 -1.16271 -4.41406
upperback -5.10512 -0.878927 -0.649933
thorax 2.9643 -0.420102 1.66132
lowerneck -3.21882 0.0660074 -1.33381
upperneck 9.46185 -0.0844128 2.82387
head 3.63793 0.0256309 1.16174
rclavicle -1.72943e-014 1.66979e-014
rhumerus -43.4938 -10.334 -83.3936
rradius 25.3184
rwrist -9.80971
rhand -22.482 -31.7932
rfingers 7.12502
rthumb 3.94336 -421.736
lclavicle -1.72943e-014 1.66979e-014
lhumerus -33.5437 14.5178 77.4435
lradius 20.434
lwrist -13.263
lhand -18.0507 -15.2972
lfingers 7.12502
lthumb 8.22144 14.5229
rfemur -44.1217 -6.04609 21.3849
rtibia 67.5673
rfoot -12.0322 2.36713
rtoes -7.11945
lfemur -26.5681 5.117 -26.1096
ltibia 36.3954
lfoot -23.6174 -4.14472
ltoes -6.32972
331
root 0.545967 16.2243 26.1263 16.2439 0.0822205 1.66744
lowerback -14.4785 -1.31118 -4.42324
upperback -5.23235 -1.0999 -0.590456
thorax 2.64996 -0.521739 1.6972
lowerneck -3.04781 0.146219 -1.27005
upperneck 9.6384 0.0176823 2.78784
head 3.6636 0.0765079 1.14329
rclavicle -6.7711e-015 -1.55052e-014
rhumerus -44.5562 -12.5963 -81.3508
rradius 23.0926
rwrist -7.51927
rhand -22.344 -32.1389
rfingers 7.12502
rthumb 4.0766 -422.08
lclavicle -6.7711e-015 -1.55052e-014
lhumerus -32.234 12.6591 78.4786
lradius 21.2958
lwrist -12.1272
lhand -18.2348 -15.6719
lfingers 7.12502
lthumb 8.04369 14.155
rfemur -45.013 -5.93523 21.6948
rtibia 65.5213
rfoot -12.5129 1.62026
rtoes -6.32961
lfemur -25.6377 5.39404 -26.0592
ltibia 36.1179
lfoot -24.0998 -4.69424
ltoes -5.30477
332
root 0.543532 16.2157 26.326 16.253 0.353955 1.6413
lowerback -14.4307 -1.40791 -4.43073
upperback -5.23403 -1.23142 -0.519209
thorax 2.63228 -0.58605 1.75484
lowerneck -2.92353 0.147763 -1.20814
upperneck 9.63777 0.0188137 2.74642
head 3.63873 0.07679 1.11774
rclavicle -7.3923e-016 1.13307e-014
rhumerus -45.727 -15.4668 -78.6532
rradius 21.0716
rwrist -4.67818
rhand -22.343 -31.7955
rfingers 7.12502
rthumb 4.07752 -421.736
lclavicle -7.3923e-016 1.13307e-014
lhumerus -30.5824 10.6797 79.5652
lradius 22.0475
lwrist -10.7524
lhand -18.2642 -15.4637
lfingers 7.12502
lthumb 8.01535 14.3643
rfemur -45.8004 -5.71623 22.0623
rtibia 63.2808
rfoot -13.0518 0.438984
rtoes -7.98808
lfemur -24.6281 5.76189 -25.9394
ltibia 35.6573
lfoot -24.4496 -5.06622
ltoes -6.11964
333
root 0.542985 16.2046 26.5392 16.3602 0.489391 2.15659
lowerback -14.7626 -1.54713 -4.96946
upperback -5.10667 -1.31253 -0.598353
thorax 2.95622 -0.631799 1.95445
lowerneck -2.96261 0.112232 -1.19292
upperneck 9.53014 -0.0267109 2.73727
head 3.60956 0.0542392 1.10935
rclavicle 4.91681e-015 1.51076e-014
rhumerus -47.0103 -19.0068 -75.1258
rradius 19.0182
rwrist -0.783888
rhand -21.9994 -31.7112
rfingers 7.12502
rthumb 4.40932 -421.645
lclavicle 4.91681e-015 1.51076e-014
lhumerus -28.8879 8.5352 80.6257
lradius 23.0169
lwrist -9.14075
lhand -18.4875 -15.2123
lfingers 7.12502
lthumb 7.7998 14.6238
rfemur -46.6141 -5.62047 21.7358
rtibia 60.8556
rfoot -13.4709 -0.703994
rtoes -7.11759
lfemur -23.5472 6.18231 -26.4461
ltibia 35.0542
lfoot -24.6312 -5.62646
ltoes -6.75265
334
root 0.583494 16.2123 26.7545 16.417 1.38039 2.55453
lowerback -14.8129 -1.79756 -4.6935
upperback -5.08987 -1.67169 -0.727413
thorax 3.01631 -0.812876 1.59965
lowerneck -2.96297 0.0518575 -1.24356
upperneck 9.52724 -0.104168 2.73245
head 3.61064 0.0138492 1.11361
rclavicle 3.94463e-015 1.07344e-014
rhumerus -48.9108 -22.6356 -70.9032
rradius 17.1998
rwrist 3.64052
rhand -21.7646 -32.0007
rfingers 7.12502
rthumb 4.63612 -421.93
lclavicle 3.94463e-015 1.07344e-014
lhumerus -27.6026 6.50437 81.4256
lradius 24.152
lwrist -7.76573
lhand -18.6595 -15.2568
lfingers 7.12502
lthumb 7.63382 14.5854
rfemur -47.0145 -6.80754 21.6275
rtibia 58.0884
rfoot -14.2818 -1.27018
rtoes -4.8873
lfemur -22.2673 6.21183 -26.7965
ltibia 34.2785
lfoot -24.8141 -6.81682
ltoes -5.55744
335
root 0.56951 16.2304 26.969 16.263 1.58787 1.99142
lowerback -14.5885 -1.79859 -4.38143
upperback -5.08389 -1.74059 -0.461819
thorax 2.90748 -0.84521 1.69576
lowerneck -2.97656 -0.0463936 -1.39975
upperneck 9.60743 -0.238591 2.84823
head 3.6463 -0.0532837 1.17526
rclavicle 1.63469e-014 9.54166e-015
rhumerus -51.4925 -26.3487 -65.8767
rradius 15.6682
rwrist 8.48151
rhand -21.8139 -32.0976
rfingers 7.12502
rthumb 4.58847 -422.028
lclavicle 1.63469e-014 9.54166e-015
lhumerus -26.2572 4.65975 82.0129
lradius 24.9881
lwrist -6.37755
lhand -18.7891 -15.5279
lfingers 7.12502
lthumb 7.50873 14.3188
rfemur -47.1991 -6.04885 22.3802
rtibia 55.0138
rfoot -14.9884 -2.41441
rtoes -3.40909
lfemur -20.8827 6.52959 -25.9288
ltibia 33.3741
lfoot -24.9097 -7.3539
ltoes -4.4539
336
root 0.572291 16.2499 27.1765 16.1451 1.92321 1.5175
lowerback -14.296 -1.81689 -3.87363
upperback -5.08002 -1.85701 -0.282197
thorax 2.75466 -0.902259 1.58525
lowerneck -3.15242 -0.0759555 -1.45938
upperneck 9.79838 -0.286446 2.94659
head 3.75003 -0.0731375 1.21967
rclavicle 1.28402e-014 9.93923e-016
rhumerus -54.9018 -30.5047 -59.3874
rradius 14.0752
rwrist 14.664
rhand -21.3799 -32.5436
rfingers 7.12502
rthumb 5.00754 -422.464
lclavicle 1.28402e-014 9.93923e-016
lhumerus -24.7874 2.97587 82.4148
lradius 25.6365
lwrist -4.95426
lhand -19.0948 -15.9566
lfingers 7.12502
lthumb 7.21369 13.9004
rfemur -47.3981 -5.7259 22.9991
rtibia 51.7241
rfoot -14.8315 -3.09659
rtoes 0.729547
lfemur -19.5021 6.84903 -25.199
ltibia 32.4806
lfoot -25.0062 -7.81114
ltoes -4.70738
